<svg viewBox="0 0 800 450" xmlns="http://www.w3.org/2000/svg">
  <defs>
    <linearGradient id="bgGrad-buildingmyportfoliowebsitewithastro" x1="0" y1="0" x2="1" y2="1">
      <stop offset="0%" stop-color="#141d2b" />
      <stop offset="100%" stop-color="#1a2331" />
    </linearGradient>
    <radialGradient id="glow-buildingmyportfoliowebsitewithastro" cx="50%" cy="50%" r="65%">
      <stop offset="0%" stop-color="#07e9b4" stop-opacity="0.16" />
      <stop offset="100%" stop-color="#07e9b4" stop-opacity="0" />
    </radialGradient>
  </defs>
  <rect width="800" height="450" fill="url(#bgGrad-buildingmyportfoliowebsitewithastro)" />
  <rect width="800" height="450" fill="url(#glow-buildingmyportfoliowebsitewithastro)" />
  <line x1="196" y1="66" x2="196" y2="203" stroke="#4a5466" stroke-width="2" opacity="0.24" />
<line x1="316" y1="406" x2="316" y2="430" stroke="#4a5466" stroke-width="2" opacity="0.15" />
<line x1="469" y1="215" x2="664" y2="215" stroke="#4a5466" stroke-width="2" opacity="0.17" />
<line x1="68" y1="97" x2="213" y2="97" stroke="#4a5466" stroke-width="2" opacity="0.14" />
<line x1="26" y1="111" x2="195" y2="111" stroke="#4a5466" stroke-width="2" opacity="0.22" />
<line x1="276" y1="406" x2="276" y2="430" stroke="#4a5466" stroke-width="2" opacity="0.13" />
<line x1="65" y1="155" x2="65" y2="307" stroke="#4a5466" stroke-width="2" opacity="0.30" />
<line x1="348" y1="430" x2="348" y2="430" stroke="#4a5466" stroke-width="2" opacity="0.29" />
<line x1="386" y1="400" x2="487" y2="400" stroke="#4a5466" stroke-width="2" opacity="0.27" />

  <circle cx="56" cy="285" r="3" fill="#07e9b4" opacity="0.80" />
<circle cx="517" cy="191" r="4" fill="#07e9b4" opacity="0.64" />
<circle cx="722" cy="111" r="3" fill="#07e9b4" opacity="0.73" />
<circle cx="646" cy="199" r="3" fill="#07e9b4" opacity="0.77" />
<circle cx="414" cy="138" r="3" fill="#07e9b4" opacity="0.56" />
<circle cx="623" cy="109" r="4" fill="#07e9b4" opacity="0.59" />

  <text x="400" y="233" text-anchor="middle" font-family="monospace" font-size="22" fill="#cad2e2" opacity="0.55" letter-spacing="2">BUILDING PORTFOLIO</text>
</svg>
